<svg width="132" height="132" viewBox="0 0 132 132" fill="none" xmlns="http://www.w3.org/2000/svg">
<g id="Compinente Bot&#195;&#163;o Ativo">
<circle id="Ellipse 3" cx="65.9551" cy="65.985" r="65.5988" fill="#5774CD"/>
<g id="Group 5">
<path id="Line 3 (Stroke)" fill-rule="evenodd" clip-rule="evenodd" d="M31.4996 57.422C33.6904 55.2312 37.2423 55.2312 39.4331 57.422L62.4789 80.4678C64.6696 82.6585 64.6696 86.2105 62.4789 88.4012C60.2881 90.592 56.7361 90.592 54.5454 88.4012L31.4996 65.3555C29.3089 63.1647 29.3089 59.6128 31.4996 57.422Z" fill="white"/>
<path id="Line 4 (Stroke)" fill-rule="evenodd" clip-rule="evenodd" d="M99.4733 43.7123C101.664 45.903 101.664 49.455 99.4733 51.6458L62.4788 88.6403C60.288 90.831 56.7361 90.831 54.5453 88.6403C52.3545 86.4495 52.3545 82.8975 54.5453 80.7068L91.5398 43.7123C93.7306 41.5215 97.2825 41.5215 99.4733 43.7123Z" fill="white"/>
</g>
</g>
</svg>
