<svg width="82" height="123" viewBox="0 0 82 123" fill="none" xmlns="http://www.w3.org/2000/svg">
<g id="Componente Lixeira">
<path id="Vector" d="M0.557648 31.2333H4.51615V117.198C4.51615 120.205 6.95215 122.641 9.95909 122.641H72.3436C75.3505 122.641 77.7865 120.205 77.7865 117.198V31.2333H81.764V23.9824H0.557648V31.2333ZM14.9833 115.142C14.9833 116.151 14.2221 116.95 13.2896 116.95H12.4522C11.5197 116.95 10.7584 116.132 10.7584 115.142V35.7628C10.7584 34.7541 11.5197 33.9548 12.4522 33.9548H13.2896C14.2221 33.9548 14.9833 34.7731 14.9833 35.7628V115.142ZM24.4799 115.142C24.4799 116.151 23.7187 116.95 22.7862 116.95H21.9488C21.0163 116.95 20.255 116.132 20.255 115.142V35.7628C20.255 34.7541 21.0163 33.9548 21.9488 33.9548H22.7862C23.7187 33.9548 24.4799 34.7731 24.4799 35.7628V115.142ZM33.9765 115.142C33.9765 116.151 33.2153 116.95 32.2828 116.95H31.4454C30.5129 116.95 29.7516 116.132 29.7516 115.142V35.7628C29.7516 34.7541 30.5129 33.9548 31.4454 33.9548H32.2828C33.2153 33.9548 33.9765 34.7731 33.9765 35.7628V115.142ZM43.4731 115.142C43.4731 116.151 42.7119 116.95 41.7794 116.95H40.942C40.0095 116.95 39.2482 116.132 39.2482 115.142V35.7628C39.2482 34.7541 40.0095 33.9548 40.942 33.9548H41.7794C42.7119 33.9548 43.4731 34.7731 43.4731 35.7628V115.142ZM52.9697 115.142C52.9697 116.151 52.2085 116.95 51.276 116.95H50.4386C49.5061 116.95 48.7448 116.132 48.7448 115.142V35.7628C48.7448 34.7541 49.5061 33.9548 50.4386 33.9548H51.276C52.2085 33.9548 52.9697 34.7731 52.9697 35.7628V115.142ZM62.4663 115.142C62.4663 116.151 61.7051 116.95 60.7726 116.95H59.9352C59.0027 116.95 58.2414 116.132 58.2414 115.142V35.7628C58.2414 34.7541 59.0027 33.9548 59.9352 33.9548H60.7726C61.7051 33.9548 62.4663 34.7731 62.4663 35.7628V115.142ZM71.9629 115.142C71.9629 116.151 71.2017 116.95 70.2692 116.95H69.4318C68.4993 116.95 67.738 116.132 67.738 115.142V35.7628C67.738 34.7541 68.4993 33.9548 69.4318 33.9548H70.2692C71.2017 33.9548 71.9629 34.7731 71.9629 35.7628V115.142Z" fill="#374662"/>
<path id="Vector_2" d="M0.995231 23.046L81.9162 16.3279L81.3072 9.09605L56.7568 11.1324L56.4904 8.01127C56.1098 3.51989 52.1703 0.170384 47.6789 0.531978L32.1494 1.8261C27.658 2.20673 24.3085 6.1462 24.6892 10.6376L24.9556 13.7587L0.38623 15.8141L0.995231 23.046ZM30.1131 10.1999C29.9989 8.69639 31.1217 7.38323 32.6062 7.26905L48.1357 5.97492C49.6201 5.86073 50.9523 6.96455 51.0665 8.46802L51.3329 11.5891L30.3795 13.321L30.1131 10.1999Z" fill="#5774CD"/>
</g>
</svg>
